<svg xmlns="http://www.w3.org/2000/svg" width="17.535" height="11.69" viewBox="0 0 17.535 11.69">
  <path id="Icon_awesome-eye" data-name="Icon awesome-eye" d="M17.429,9.9A9.764,9.764,0,0,0,8.768,4.5,9.766,9.766,0,0,0,.106,9.9a.985.985,0,0,0,0,.889,9.764,9.764,0,0,0,8.662,5.4,9.766,9.766,0,0,0,8.662-5.4A.985.985,0,0,0,17.429,9.9ZM8.768,14.729a4.384,4.384,0,1,1,4.384-4.384A4.384,4.384,0,0,1,8.768,14.729Zm0-7.306A2.9,2.9,0,0,0,8,7.538,1.457,1.457,0,0,1,5.96,9.574,2.916,2.916,0,1,0,8.768,7.423Z" transform="translate(0 -4.5)" fill="#fff"/>
</svg>
