<svg xmlns="http://www.w3.org/2000/svg" width="39.64" height="35.892" viewBox="0 0 39.64 35.892">
  <g id="subtitle-logo" transform="translate(-771.793 -909)">
    <path id="Контур_196" data-name="Контур 196" d="M632.776,3825.8s1.747,10.169-.453,15.876h-15.4A54.726,54.726,0,0,1,615.8,3830.8c-.076-6.473.477-9.712,3.379-15.241s10.255-9.855,13.421-9.775v1.016c-6.13,6.436-9.575,13.166-8.8,19Z" transform="translate(156 -2896.783)" fill="#2b2a29"/>
    <path id="Контур_197" data-name="Контур 197" d="M632.776,3825.8s1.747,10.169-.453,15.876h-15.4A54.726,54.726,0,0,1,615.8,3830.8c-.076-6.473.477-9.712,3.379-15.241s10.255-9.855,13.421-9.775v1.016c-6.13,6.436-9.575,13.166-8.8,19Z" transform="translate(178 -2896.783)" fill="#2b2a29"/>
  </g>
</svg>
