<svg id="cabinet-money-icon" xmlns="http://www.w3.org/2000/svg" width="41" height="41" viewBox="0 0 41 41">
  <g id="Rectangle" fill="#fff" stroke="#e2e4e8" stroke-miterlimit="10" stroke-width="1">
    <rect width="41" height="41" rx="10" stroke="none"/>
    <rect x="0.5" y="0.5" width="40" height="40" rx="9.5" fill="none"/>
  </g>
  <g id="cabinet-money-icon-2" data-name="cabinet-money-icon" transform="translate(8.398 12.182)">
    <g id="Сгруппировать_132" data-name="Сгруппировать 132" transform="translate(2.377)">
      <g id="Сгруппировать_128" data-name="Сгруппировать 128" transform="translate(0.468 0.468)">
        <g id="Сгруппировать_127" data-name="Сгруппировать 127">
          <g id="Сгруппировать_126" data-name="Сгруппировать 126">
            <rect id="Прямоугольник_10" data-name="Прямоугольник 10" width="20.557" height="12.581" fill="#80f1b1"/>
          </g>
        </g>
      </g>
      <g id="Сгруппировать_131" data-name="Сгруппировать 131" transform="translate(0 0)">
        <g id="Сгруппировать_130" data-name="Сгруппировать 130">
          <g id="Сгруппировать_129" data-name="Сгруппировать 129">
            <path id="Контур_41" data-name="Контур 41" d="M1628.3,227.08H1607.74a.468.468,0,0,1-.468-.468V214.031a.468.468,0,0,1,.468-.468H1628.3a.468.468,0,0,1,.468.468v12.581A.468.468,0,0,1,1628.3,227.08Zm-20.089-.937h19.62V214.5h-19.62Z" transform="translate(-1607.272 -213.563)" fill="#393939"/>
          </g>
        </g>
      </g>
    </g>
    <g id="Сгруппировать_136" data-name="Сгруппировать 136" transform="translate(0.468 2.811)">
      <g id="Сгруппировать_135" data-name="Сгруппировать 135" transform="translate(0 0)">
        <g id="Сгруппировать_134" data-name="Сгруппировать 134">
          <g id="Сгруппировать_133" data-name="Сгруппировать 133">
            <rect id="Прямоугольник_11" data-name="Прямоугольник 11" width="20.557" height="12.581" fill="#fff"/>
          </g>
        </g>
      </g>
    </g>
    <g id="Сгруппировать_143" data-name="Сгруппировать 143" transform="translate(0.208 2.551)">
      <g id="Сгруппировать_139" data-name="Сгруппировать 139" transform="translate(0.26 0.26)">
        <g id="Сгруппировать_138" data-name="Сгруппировать 138">
          <g id="Сгруппировать_137" data-name="Сгруппировать 137">
            <path id="Контур_42" data-name="Контур 42" d="M1591.393,240.572a2.458,2.458,0,0,1-2.458,2.458v-2.458Z" transform="translate(-1588.935 -240.572)" fill="#80f1b1"/>
          </g>
        </g>
      </g>
      <g id="Сгруппировать_142" data-name="Сгруппировать 142" transform="translate(0 0)">
        <g id="Сгруппировать_141" data-name="Сгруппировать 141">
          <g id="Сгруппировать_140" data-name="Сгруппировать 140">
            <path id="Контур_43" data-name="Контур 43" d="M1586.7,241.05a.26.26,0,0,1-.26-.26v-2.458a.26.26,0,0,1,.26-.26h2.458a.26.26,0,0,1,.26.26A2.721,2.721,0,0,1,1586.7,241.05Zm.26-2.458v1.922a2.2,2.2,0,0,0,1.922-1.922Z" transform="translate(-1586.435 -238.072)" fill="#393939"/>
          </g>
        </g>
      </g>
    </g>
    <g id="Сгруппировать_150" data-name="Сгруппировать 150" transform="translate(0.208 12.674)">
      <g id="Сгруппировать_146" data-name="Сгруппировать 146" transform="translate(0.26 0.26)">
        <g id="Сгруппировать_145" data-name="Сгруппировать 145">
          <g id="Сгруппировать_144" data-name="Сгруппировать 144">
            <path id="Контур_44" data-name="Контур 44" d="M1591.393,340.282a2.458,2.458,0,0,0-2.458-2.458v2.458Z" transform="translate(-1588.935 -337.824)" fill="#80f1b1"/>
          </g>
        </g>
      </g>
      <g id="Сгруппировать_149" data-name="Сгруппировать 149" transform="translate(0 0)">
        <g id="Сгруппировать_148" data-name="Сгруппировать 148">
          <g id="Сгруппировать_147" data-name="Сгруппировать 147">
            <path id="Контур_45" data-name="Контур 45" d="M1589.153,338.3H1586.7a.26.26,0,0,1-.26-.26v-2.458a.26.26,0,0,1,.26-.26,2.721,2.721,0,0,1,2.718,2.718A.26.26,0,0,1,1589.153,338.3Zm-2.2-.52h1.922a2.2,2.2,0,0,0-1.922-1.922Z" transform="translate(-1586.435 -335.324)" fill="#393939"/>
          </g>
        </g>
      </g>
    </g>
    <g id="Сгруппировать_157" data-name="Сгруппировать 157" transform="translate(18.307 2.551)">
      <g id="Сгруппировать_153" data-name="Сгруппировать 153" transform="translate(0.26 0.26)">
        <g id="Сгруппировать_152" data-name="Сгруппировать 152">
          <g id="Сгруппировать_151" data-name="Сгруппировать 151">
            <path id="Контур_46" data-name="Контур 46" d="M1765.279,243.03a2.458,2.458,0,0,1-2.458-2.458h2.458Z" transform="translate(-1762.821 -240.572)" fill="#80f1b1"/>
          </g>
        </g>
      </g>
      <g id="Сгруппировать_156" data-name="Сгруппировать 156" transform="translate(0 0)">
        <g id="Сгруппировать_155" data-name="Сгруппировать 155">
          <g id="Сгруппировать_154" data-name="Сгруппировать 154">
            <path id="Контур_47" data-name="Контур 47" d="M1763.039,241.05a2.721,2.721,0,0,1-2.718-2.718.26.26,0,0,1,.26-.26h2.458a.26.26,0,0,1,.26.26v2.458A.26.26,0,0,1,1763.039,241.05Zm-2.182-2.458a2.2,2.2,0,0,0,1.922,1.922v-1.922Z" transform="translate(-1760.321 -238.072)" fill="#393939"/>
          </g>
        </g>
      </g>
    </g>
    <g id="Сгруппировать_164" data-name="Сгруппировать 164" transform="translate(18.307 12.674)">
      <g id="Сгруппировать_160" data-name="Сгруппировать 160" transform="translate(0.26 0.26)">
        <g id="Сгруппировать_159" data-name="Сгруппировать 159">
          <g id="Сгруппировать_158" data-name="Сгруппировать 158">
            <path id="Контур_48" data-name="Контур 48" d="M1765.279,337.824a2.458,2.458,0,0,0-2.458,2.458h2.458Z" transform="translate(-1762.821 -337.824)" fill="#80f1b1"/>
          </g>
        </g>
      </g>
      <g id="Сгруппировать_163" data-name="Сгруппировать 163" transform="translate(0 0)">
        <g id="Сгруппировать_162" data-name="Сгруппировать 162">
          <g id="Сгруппировать_161" data-name="Сгруппировать 161">
            <path id="Контур_49" data-name="Контур 49" d="M1763.039,338.3h-2.458a.26.26,0,0,1-.26-.26,2.721,2.721,0,0,1,2.718-2.718.26.26,0,0,1,.26.26v2.458A.26.26,0,0,1,1763.039,338.3Zm-2.182-.52h1.922V335.86A2.2,2.2,0,0,0,1760.857,337.782Z" transform="translate(-1760.321 -335.324)" fill="#393939"/>
          </g>
        </g>
      </g>
    </g>
    <g id="Сгруппировать_168" data-name="Сгруппировать 168" transform="translate(0 2.343)">
      <g id="Сгруппировать_167" data-name="Сгруппировать 167" transform="translate(0 0)">
        <g id="Сгруппировать_166" data-name="Сгруппировать 166">
          <g id="Сгруппировать_165" data-name="Сгруппировать 165">
            <path id="Контур_50" data-name="Контур 50" d="M1605.461,249.589H1584.9a.468.468,0,0,1-.469-.468V236.54a.468.468,0,0,1,.469-.468h20.557a.468.468,0,0,1,.469.468v12.581A.468.468,0,0,1,1605.461,249.589Zm-20.089-.937h19.62V237.009h-19.62Z" transform="translate(-1584.435 -236.072)" fill="#393939"/>
          </g>
        </g>
      </g>
    </g>
    <g id="Сгруппировать_172" data-name="Сгруппировать 172" transform="translate(3.197 3.944)">
      <g id="Сгруппировать_171" data-name="Сгруппировать 171" transform="translate(0 0)">
        <g id="Сгруппировать_170" data-name="Сгруппировать 170">
          <g id="Сгруппировать_169" data-name="Сгруппировать 169">
            <path id="Контур_51" data-name="Контур 51" d="M1629.728,252.5h-14.059a.52.52,0,1,1,0-1.041h14.059a.52.52,0,0,1,0,1.041Z" transform="translate(-1615.148 -251.455)" fill="#80f1b1"/>
          </g>
        </g>
      </g>
    </g>
    <g id="Сгруппировать_176" data-name="Сгруппировать 176" transform="translate(3.197 13.246)">
      <g id="Сгруппировать_175" data-name="Сгруппировать 175" transform="translate(0 0)">
        <g id="Сгруппировать_174" data-name="Сгруппировать 174">
          <g id="Сгруппировать_173" data-name="Сгруппировать 173">
            <path id="Контур_52" data-name="Контур 52" d="M1629.728,341.863h-14.059a.52.52,0,1,1,0-1.041h14.059a.52.52,0,0,1,0,1.041Z" transform="translate(-1615.148 -340.822)" fill="#80f1b1"/>
          </g>
        </g>
      </g>
    </g>
    <g id="Сгруппировать_180" data-name="Сгруппировать 180" transform="translate(6.312 4.667)">
      <g id="Сгруппировать_179" data-name="Сгруппировать 179" transform="translate(0 0)">
        <g id="Сгруппировать_178" data-name="Сгруппировать 178">
          <g id="Сгруппировать_177" data-name="Сгруппировать 177">
            <path id="Контур_53" data-name="Контур 53" d="M1653.947,262.833a4.435,4.435,0,1,1-4.435-4.435A4.435,4.435,0,0,1,1653.947,262.833Z" transform="translate(-1645.077 -258.398)" fill="#80f1b1"/>
          </g>
        </g>
      </g>
    </g>
    <g id="Сгруппировать_184" data-name="Сгруппировать 184" transform="translate(6.052 4.407)">
      <g id="Сгруппировать_183" data-name="Сгруппировать 183">
        <g id="Сгруппировать_182" data-name="Сгруппировать 182">
          <g id="Сгруппировать_181" data-name="Сгруппировать 181">
            <path id="Контур_54" data-name="Контур 54" d="M1647.272,265.288a4.7,4.7,0,1,1,4.695-4.7A4.7,4.7,0,0,1,1647.272,265.288Zm0-8.87a4.175,4.175,0,1,0,4.175,4.175A4.179,4.179,0,0,0,1647.272,256.418Z" transform="translate(-1642.577 -255.898)" fill="#393939"/>
          </g>
        </g>
      </g>
    </g>
    <g id="Сгруппировать_188" data-name="Сгруппировать 188" transform="translate(1.882 8.841)">
      <g id="Сгруппировать_187" data-name="Сгруппировать 187" transform="translate(0)">
        <g id="Сгруппировать_186" data-name="Сгруппировать 186">
          <g id="Сгруппировать_185" data-name="Сгруппировать 185">
            <path id="Контур_55" data-name="Контур 55" d="M1605.538,299.025h-2.764a.26.26,0,0,1,0-.52h2.764a.26.26,0,0,1,0,.52Z" transform="translate(-1602.514 -298.505)" fill="#393939"/>
          </g>
        </g>
      </g>
    </g>
    <g id="Сгруппировать_192" data-name="Сгруппировать 192" transform="translate(16.256 8.841)">
      <g id="Сгруппировать_191" data-name="Сгруппировать 191" transform="translate(0)">
        <g id="Сгруппировать_190" data-name="Сгруппировать 190">
          <g id="Сгруппировать_189" data-name="Сгруппировать 189">
            <path id="Контур_56" data-name="Контур 56" d="M1743.633,299.024h-2.764a.26.26,0,1,1,0-.52h2.764a.26.26,0,1,1,0,.52Z" transform="translate(-1740.609 -298.504)" fill="#393939"/>
          </g>
        </g>
      </g>
    </g>
    <g id="Сгруппировать_205" data-name="Сгруппировать 205" transform="translate(9.457 6.174)">
      <g id="Сгруппировать_196" data-name="Сгруппировать 196" transform="translate(0 0.693)">
        <g id="Сгруппировать_195" data-name="Сгруппировать 195">
          <g id="Сгруппировать_194" data-name="Сгруппировать 194">
            <g id="Сгруппировать_193" data-name="Сгруппировать 193">
              <path id="Контур_57" data-name="Контур 57" d="M1676.542,284.032a1.256,1.256,0,0,1-1.254-1.254.26.26,0,1,1,.52,0,.734.734,0,0,0,1.468,0c0-.475-.3-.6-.832-.774-.488-.162-1.156-.384-1.156-1.214a1.254,1.254,0,1,1,2.509,0,.26.26,0,0,1-.521,0,.734.734,0,1,0-1.468,0c0,.435.274.546.8.72.5.166,1.188.394,1.188,1.268A1.256,1.256,0,0,1,1676.542,284.032Z" transform="translate(-1675.288 -279.535)" fill="#393939"/>
            </g>
          </g>
        </g>
      </g>
      <g id="Сгруппировать_200" data-name="Сгруппировать 200" transform="translate(0.994 0)">
        <g id="Сгруппировать_199" data-name="Сгруппировать 199">
          <g id="Сгруппировать_198" data-name="Сгруппировать 198">
            <g id="Сгруппировать_197" data-name="Сгруппировать 197">
              <path id="Контур_58" data-name="Контур 58" d="M1685.1,274.091a.26.26,0,0,1-.26-.26v-.693a.26.26,0,1,1,.52,0v.693A.26.26,0,0,1,1685.1,274.091Z" transform="translate(-1684.838 -272.878)" fill="#393939"/>
            </g>
          </g>
        </g>
      </g>
      <g id="Сгруппировать_204" data-name="Сгруппировать 204" transform="translate(0.994 4.669)">
        <g id="Сгруппировать_203" data-name="Сгруппировать 203">
          <g id="Сгруппировать_202" data-name="Сгруппировать 202">
            <g id="Сгруппировать_201" data-name="Сгруппировать 201">
              <path id="Контур_59" data-name="Контур 59" d="M1685.1,318.95a.26.26,0,0,1-.26-.26V318a.26.26,0,1,1,.52,0v.693A.26.26,0,0,1,1685.1,318.95Z" transform="translate(-1684.838 -317.736)" fill="#393939"/>
            </g>
          </g>
        </g>
      </g>
    </g>
  </g>
</svg>
