<svg xmlns="http://www.w3.org/2000/svg" width="41" height="41" viewBox="0 0 41 41">
  <g id="cabinet-man-icon" transform="translate(-377 -253)">
    <g id="Rectangle" transform="translate(377 253)" fill="#fff" stroke="#e2e4e8" stroke-miterlimit="10" stroke-width="1">
      <rect width="41" height="41" rx="10" stroke="none"/>
      <rect x="0.5" y="0.5" width="40" height="40" rx="9.5" fill="none"/>
    </g>
    <g id="cabinet-icon-1" transform="translate(-853.931 -1332.011)">
      <g id="Сгруппировать_73" data-name="Сгруппировать 73" transform="translate(1246.566 1596.153)">
        <g id="Сгруппировать_69" data-name="Сгруппировать 69" transform="translate(0.486 0.484)">
          <g id="Сгруппировать_68" data-name="Сгруппировать 68">
            <g id="Сгруппировать_67" data-name="Сгруппировать 67">
              <path id="Контур_26" data-name="Контур 26" d="M1289.614,1635.242a.751.751,0,0,0-.179-.031,3.565,3.565,0,0,0-3.492-3.1h-.42a3.564,3.564,0,0,0-3.491,3.1.747.747,0,0,0-.179.031,1.241,1.241,0,0,0-.548,1.62,1.481,1.481,0,0,0,.933,1.026,4.335,4.335,0,0,0,.948,1.934,3.736,3.736,0,0,0,2.548,1.194h.03a3.184,3.184,0,0,0,1.964-.7,3.327,3.327,0,0,0,.553-.5,4.334,4.334,0,0,0,.948-1.934,1.481,1.481,0,0,0,.933-1.026A1.241,1.241,0,0,0,1289.614,1635.242Z" transform="translate(-1281.22 -1632.111)" fill="#fff"/>
            </g>
          </g>
        </g>
        <g id="Сгруппировать_72" data-name="Сгруппировать 72" transform="translate(0)">
          <g id="Сгруппировать_71" data-name="Сгруппировать 71">
            <g id="Сгруппировать_70" data-name="Сгруппировать 70">
              <path id="Контур_27" data-name="Контур 27" d="M1281.7,1637.486a4.214,4.214,0,0,1-2.909-1.356,4.605,4.605,0,0,1-.994-1.9,2.059,2.059,0,0,1-.988-1.242,1.721,1.721,0,0,1,.778-2.195,4.017,4.017,0,0,1,3.9-3.185h.42a4.017,4.017,0,0,1,3.9,3.185,1.721,1.721,0,0,1,.778,2.195,2.058,2.058,0,0,1-.988,1.242,4.6,4.6,0,0,1-.994,1.9,3.831,3.831,0,0,1-.622.56,3.645,3.645,0,0,1-2.23.795h-.057Zm-.21-8.906a3.091,3.091,0,0,0-3.014,2.7.484.484,0,0,1-.451.4.257.257,0,0,0-.063.01c-.234.073-.382.522-.229,1.014a1.009,1.009,0,0,0,.6.7.484.484,0,0,1,.345.354,3.831,3.831,0,0,0,.839,1.725,2.714,2.714,0,0,0,.413.374l.024.019a2.715,2.715,0,0,0,1.749.638h.026a2.685,2.685,0,0,0,1.667-.592l.021-.016a2.847,2.847,0,0,0,.473-.424,3.835,3.835,0,0,0,.839-1.725.484.484,0,0,1,.345-.354,1.008,1.008,0,0,0,.6-.7c.153-.492.005-.941-.229-1.014a.256.256,0,0,0-.062-.01.485.485,0,0,1-.451-.4,3.091,3.091,0,0,0-3.014-2.7Z" transform="translate(-1276.703 -1627.611)" fill="#393939"/>
            </g>
          </g>
        </g>
      </g>
      <g id="Сгруппировать_80" data-name="Сгруппировать 80" transform="translate(1250.146 1606.592)">
        <g id="Сгруппировать_76" data-name="Сгруппировать 76" transform="translate(0.269 0.269)">
          <g id="Сгруппировать_75" data-name="Сгруппировать 75">
            <g id="Сгруппировать_74" data-name="Сгруппировать 74">
              <rect id="Прямоугольник_9" data-name="Прямоугольник 9" width="2.197" height="1.908" rx="0.954" fill="#80f1b1"/>
            </g>
          </g>
        </g>
        <g id="Сгруппировать_79" data-name="Сгруппировать 79" transform="translate(0)">
          <g id="Сгруппировать_78" data-name="Сгруппировать 78">
            <g id="Сгруппировать_77" data-name="Сгруппировать 77">
              <path id="Контур_28" data-name="Контур 28" d="M1312.119,1727.059h-1.551a.592.592,0,0,1-.592-.592V1725.2a.593.593,0,0,1,.592-.592h1.551a.593.593,0,0,1,.592.592v1.262A.593.593,0,0,1,1312.119,1727.059Zm-1.551-1.908a.054.054,0,0,0-.054.054v1.262a.054.054,0,0,0,.054.054h1.551a.054.054,0,0,0,.054-.054V1725.2a.054.054,0,0,0-.054-.054Z" transform="translate(-1309.976 -1724.613)" fill="#393939"/>
            </g>
          </g>
        </g>
      </g>
      <g id="Сгруппировать_87" data-name="Сгруппировать 87" transform="translate(1249.959 1608.465)">
        <g id="Сгруппировать_83" data-name="Сгруппировать 83" transform="translate(0.269 0.269)">
          <g id="Сгруппировать_82" data-name="Сгруппировать 82">
            <g id="Сгруппировать_81" data-name="Сгруппировать 81">
              <path id="Контур_29" data-name="Контур 29" d="M1313.41,1746.606l-.677-2.089h-1.42l-.576,2.088,1.337,2.589Z" transform="translate(-1310.736 -1744.518)" fill="#80f1b1"/>
            </g>
          </g>
        </g>
        <g id="Сгруппировать_86" data-name="Сгруппировать 86" transform="translate(0 0)">
          <g id="Сгруппировать_85" data-name="Сгруппировать 85">
            <g id="Сгруппировать_84" data-name="Сгруппировать 84">
              <path id="Контур_30" data-name="Контур 30" d="M1309.842,1747.233a.27.27,0,0,1-.239-.146l-1.337-2.589a.269.269,0,0,1-.02-.195l.576-2.088a.269.269,0,0,1,.259-.2h1.42a.269.269,0,0,1,.256.186l.678,2.089a.269.269,0,0,1-.017.206l-1.336,2.589A.269.269,0,0,1,1309.842,1747.233Zm-1.049-2.888,1.049,2.033,1.046-2.026-.583-1.8h-1.02Z" transform="translate(-1308.236 -1742.018)" fill="#393939"/>
            </g>
          </g>
        </g>
      </g>
      <g id="Сгруппировать_94" data-name="Сгруппировать 94" transform="translate(1246.951 1594.011)">
        <g id="Сгруппировать_90" data-name="Сгруппировать 90" transform="translate(0.486 0.484)">
          <g id="Сгруппировать_89" data-name="Сгруппировать 89">
            <g id="Сгруппировать_88" data-name="Сгруппировать 88">
              <path id="Контур_31" data-name="Контур 31" d="M1285.039,1617.113c-.9-2.978.9-4.9,3.88-4.9,1.444,0,4.528.87,3.657,4.752,0,0-.884-2.177-1.817-2.213-.431-.017-1.037,1.512-3.485.842C1285.65,1615.148,1285.039,1617.113,1285.039,1617.113Z" transform="translate(-1284.806 -1612.211)" fill="#221f39"/>
            </g>
          </g>
        </g>
        <g id="Сгруппировать_93" data-name="Сгруппировать 93" transform="translate(0)">
          <g id="Сгруппировать_92" data-name="Сгруппировать 92">
            <g id="Сгруппировать_91" data-name="Сгруппировать 91">
              <path id="Контур_32" data-name="Контур 32" d="M1281,1613.582h0a.484.484,0,0,1-.462-.344,4.222,4.222,0,0,1,.457-3.865,4.658,4.658,0,0,1,3.887-1.661,4.577,4.577,0,0,1,3.506,1.54,4.32,4.32,0,0,1,.623,3.8.484.484,0,0,1-.921.076,4.072,4.072,0,0,0-1.323-1.9c-.045.034-.107.086-.157.128a3.186,3.186,0,0,1-2.221.873,4.881,4.881,0,0,1-1.281-.187,1.279,1.279,0,0,0-.336-.048c-.9,0-1.3,1.233-1.308,1.246A.484.484,0,0,1,1281,1613.582Zm3.88-4.9a3.728,3.728,0,0,0-3.109,1.27,2.791,2.791,0,0,0-.518,1.776,2.028,2.028,0,0,1,1.518-.7,2.25,2.25,0,0,1,.592.083,3.918,3.918,0,0,0,1.025.153,2.235,2.235,0,0,0,1.6-.645,1.149,1.149,0,0,1,.728-.368h.026a2,2,0,0,1,1.448,1.038,2.671,2.671,0,0,0-.556-1.432A3.645,3.645,0,0,0,1284.885,1608.68Z" transform="translate(-1280.286 -1607.711)" fill="#393939"/>
            </g>
          </g>
        </g>
      </g>
      <g id="Сгруппировать_120" data-name="Сгруппировать 120" transform="translate(1242.931 1606.671)">
        <g id="Сгруппировать_116" data-name="Сгруппировать 116" transform="translate(0.484 0.484)">
          <g id="Сгруппировать_115" data-name="Сгруппировать 115">
            <g id="Сгруппировать_114" data-name="Сгруппировать 114">
              <path id="Контур_38" data-name="Контур 38" d="M1258.925,1729.848c3.555,0,4.806,2.088,4.806,5.119v1.644c0,1.31-3.649,2.372-8.15,2.372s-8.15-1.062-8.15-2.372v-1.644c0-3.03,1.274-5.119,4.829-5.119l3.32,6.256Z" transform="translate(-1247.431 -1729.848)" fill="#fff"/>
            </g>
          </g>
        </g>
        <g id="Сгруппировать_119" data-name="Сгруппировать 119" transform="translate(0 0)">
          <g id="Сгруппировать_118" data-name="Сгруппировать 118">
            <g id="Сгруппировать_117" data-name="Сгруппировать 117">
              <path id="Контур_39" data-name="Контур 39" d="M1251.565,1735.451c-4.291,0-8.634-.981-8.634-2.857v-1.644c0-3.665,1.837-5.6,5.313-5.6a.484.484,0,0,1,.428.257l2.894,5.453,2.915-5.454a.484.484,0,0,1,.427-.256c3.461,0,5.29,1.938,5.29,5.6v1.644C1260.2,1734.47,1255.855,1735.451,1251.565,1735.451Zm-3.609-9.13c-2.765.094-4.056,1.572-4.056,4.629v1.644c0,.3.638.8,2.038,1.213a23.781,23.781,0,0,0,11.255,0c1.4-.408,2.038-.914,2.038-1.213v-1.644c0-3.057-1.284-4.535-4.034-4.629l-3.2,5.995a.484.484,0,0,1-.427.256h0a.484.484,0,0,1-.427-.257Z" transform="translate(-1242.931 -1725.348)" fill="#393939"/>
            </g>
          </g>
        </g>
      </g>
      <g id="Сгруппировать_124" data-name="Сгруппировать 124" transform="translate(1253.968 1611.867)">
        <g id="Сгруппировать_123" data-name="Сгруппировать 123" transform="translate(0 0)">
          <g id="Сгруппировать_122" data-name="Сгруппировать 122">
            <g id="Сгруппировать_121" data-name="Сгруппировать 121">
              <path id="Контур_40" data-name="Контур 40" d="M1348,1774.161h-2.245a.269.269,0,0,1,0-.538H1348a.269.269,0,0,1,0,.538Z" transform="translate(-1345.487 -1773.623)" fill="#393939"/>
            </g>
          </g>
        </g>
      </g>
    </g>
  </g>
</svg>
