<svg xmlns="http://www.w3.org/2000/svg" width="41" height="41" viewBox="0 0 41 41">
  <g id="cabinet-card-icon" transform="translate(-256 -337)">
    <g id="Rectangle" transform="translate(256 337)" fill="#fff" stroke="#e2e4e8" stroke-miterlimit="10" stroke-width="1">
      <rect width="41" height="41" rx="10" stroke="none"/>
      <rect x="0.5" y="0.5" width="40" height="40" rx="9.5" fill="none"/>
    </g>
    <g id="cabinet-card-icon-2" data-name="cabinet-card-icon">
      <g id="Сгруппировать_730" data-name="Сгруппировать 730">
        <g id="Сгруппировать_35" data-name="Сгруппировать 35" transform="translate(265.273 350.044)">
          <rect id="Прямоугольник_7" data-name="Прямоугольник 7" width="22.893" height="15.283" rx="2" fill="#fff"/>
        </g>
        <g id="Сгруппировать_42" data-name="Сгруппировать 42" transform="translate(264.695 349.466)">
          <g id="Сгруппировать_41" data-name="Сгруппировать 41" transform="translate(0 0)">
            <g id="Сгруппировать_40" data-name="Сгруппировать 40">
              <g id="Сгруппировать_39" data-name="Сгруппировать 39">
                <path id="Контур_20" data-name="Контур 20" d="M553.364,621.306H534.608a2.649,2.649,0,0,1-2.646-2.646V607.514a2.649,2.649,0,0,1,2.646-2.646h18.756a2.649,2.649,0,0,1,2.646,2.646V618.66A2.649,2.649,0,0,1,553.364,621.306Zm-18.756-15.283a1.493,1.493,0,0,0-1.491,1.491V618.66a1.493,1.493,0,0,0,1.491,1.491h18.756a1.493,1.493,0,0,0,1.491-1.491V607.514a1.493,1.493,0,0,0-1.491-1.491Z" transform="translate(-531.962 -604.868)" fill="#393939"/>
              </g>
            </g>
          </g>
        </g>
        <g id="Сгруппировать_43" data-name="Сгруппировать 43" transform="translate(267.287 362.59)">
          <path id="Контур_21" data-name="Контур 21" d="M570.344,708.4H552.791a.642.642,0,0,1,0-1.284h17.553a.642.642,0,1,1,0,1.284Z" transform="translate(-552.149 -707.113)" fill="#80f1b1"/>
        </g>
        <g id="Сгруппировать_55" data-name="Сгруппировать 55" transform="translate(267.607 360.375)">
          <path id="Контур_24" data-name="Контур 24" d="M562.225,690.5H554.97a.321.321,0,1,1,0-.642h7.255a.321.321,0,1,1,0,.642Z" transform="translate(-554.649 -689.854)" fill="#393939"/>
        </g>
        <g id="Сгруппировать_51" data-name="Сгруппировать 51" transform="translate(267.607 358.208)">
          <path id="Контур_23" data-name="Контур 23" d="M564.233,673.607H554.97a.321.321,0,1,1,0-.642h9.263a.321.321,0,1,1,0,.642Z" transform="translate(-554.649 -672.965)" fill="#393939"/>
        </g>
        <g id="Сгруппировать_59" data-name="Сгруппировать 59" transform="translate(265.273 353.163)">
          <rect id="Прямоугольник_8" data-name="Прямоугольник 8" width="22.893" height="2.867" fill="#80f1b1"/>
        </g>
        <g id="Сгруппировать_62" data-name="Сгруппировать 62" transform="translate(264.695 352.585)">
          <path id="Контур_25" data-name="Контур 25" d="M555.433,633.186H532.54a.578.578,0,0,1-.578-.578v-2.866a.578.578,0,0,1,.578-.578h22.893a.578.578,0,0,1,.578.578v2.866A.578.578,0,0,1,555.433,633.186Zm-22.316-1.155h21.738v-1.711H533.117Z" transform="translate(-531.962 -629.164)" fill="#393939"/>
        </g>
      </g>
      <path id="Icon_ionic-ios-star" data-name="Icon ionic-ios-star" d="M6.014,4.633H4.73l-.39-1.165a.141.141,0,0,0-.266,0l-.39,1.165H2.39a.14.14,0,0,0-.14.14.1.1,0,0,0,0,.024.134.134,0,0,0,.059.1l1.056.744L2.962,6.817a.14.14,0,0,0,.048.157.135.135,0,0,0,.079.034.171.171,0,0,0,.087-.031l1.031-.735,1.031.735a.164.164,0,0,0,.087.031A.125.125,0,0,0,5.4,6.974a.138.138,0,0,0,.048-.157L5.045,5.639l1.047-.751.025-.022a.134.134,0,0,0-.1-.233Z" transform="translate(279.551 355.008)" fill="#393939"/>
    </g>
  </g>
</svg>
