<svg xmlns="http://www.w3.org/2000/svg" xmlns:xlink="http://www.w3.org/1999/xlink" width="62" height="62" viewBox="0 0 62 62">
  <defs>
    <filter id="Эллипс_10" x="0" y="0" width="62" height="62" filterUnits="userSpaceOnUse">
      <feOffset dx="5" dy="5" input="SourceAlpha"/>
      <feGaussianBlur stdDeviation="4" result="blur"/>
      <feFlood flood-opacity="0.161"/>
      <feComposite operator="in" in2="blur"/>
      <feComposite in="SourceGraphic"/>
    </filter>
  </defs>
  <g id="modal-close" transform="translate(-1015 -995)">
    <g transform="matrix(1, 0, 0, 1, 1015, 995)" filter="url(#Эллипс_10)">
      <circle id="Эллипс_10-2" data-name="Эллипс 10" cx="19" cy="19" r="19" transform="translate(7 7)" fill="#80f1b1"/>
    </g>
    <path id="Icon_ionic-ios-close" data-name="Icon ionic-ios-close" d="M19.589,18l4.8-4.8A1.124,1.124,0,0,0,22.8,11.616l-4.8,4.8-4.8-4.8A1.124,1.124,0,1,0,11.616,13.2l4.8,4.8-4.8,4.8A1.124,1.124,0,0,0,13.2,24.384l4.8-4.8,4.8,4.8A1.124,1.124,0,1,0,24.384,22.8Z" transform="translate(1023.156 1003.5)" fill="#221f39"/>
  </g>
</svg>
