<svg id="office-icon-up" xmlns="http://www.w3.org/2000/svg" width="29.25" height="29.25" viewBox="0 0 29.25 29.25">
  <path id="Контур_214" data-name="Контур 214" d="M10.378,23.436a1.362,1.362,0,0,1,0-1.92l6.729-6.708a1.356,1.356,0,0,1,1.87-.042l6.63,6.609A1.355,1.355,0,1,1,23.7,23.3L18,17.685l-5.7,5.759A1.356,1.356,0,0,1,10.378,23.436Z" transform="translate(-3.375 -5.626)" fill="#221f39"/>
  <path id="Контур_215" data-name="Контур 215" d="M3.375,18A14.625,14.625,0,1,1,18,32.625,14.623,14.623,0,0,1,3.375,18Zm23.372,8.747A12.37,12.37,0,1,0,9.253,9.253,12.37,12.37,0,1,0,26.747,26.747Z" transform="translate(-3.375 -3.375)" fill="#221f39"/>
</svg>
