<svg xmlns="http://www.w3.org/2000/svg" width="24.309" height="24.309" viewBox="0 0 24.309 24.309">
  <path id="Icon_awesome-phone-alt" data-name="Icon awesome-phone-alt" d="M23.616,17.178,18.3,14.9a1.14,1.14,0,0,0-1.329.328L14.614,18.1A17.6,17.6,0,0,1,6.2,9.691L9.078,7.336a1.137,1.137,0,0,0,.328-1.329L7.127.689A1.147,1.147,0,0,0,5.821.029L.883,1.169A1.14,1.14,0,0,0,0,2.279,22.028,22.028,0,0,0,22.03,24.31a1.139,1.139,0,0,0,1.111-.883l1.139-4.938a1.153,1.153,0,0,0-.665-1.31Z" transform="translate(0 0)" fill="#221f39"/>
</svg>
