<svg id="form-input-eye" xmlns="http://www.w3.org/2000/svg" xmlns:xlink="http://www.w3.org/1999/xlink" width="30" height="30" viewBox="0 0 30 30">
  <defs>
    <clipPath id="clip-path">
      <rect id="Background" width="30" height="30" transform="translate(1336 409)" fill="none"/>
    </clipPath>
  </defs>
  <g id="Группа_масок_82" data-name="Группа масок 82" transform="translate(-1336 -409)" clip-path="url(#clip-path)">
    <g id="eye-close-up" transform="translate(1340.876 417.239)">
      <path id="Контур_120" data-name="Контур 120" d="M10.443,161.525a11.466,11.466,0,0,0-10.4,6.634.448.448,0,0,0,0,.379,11.47,11.47,0,0,0,20.8,0,.448.448,0,0,0,0-.379A11.466,11.466,0,0,0,10.443,161.525Zm0,11.533a4.708,4.708,0,1,1,4.708-4.708A4.707,4.707,0,0,1,10.443,173.058Z" transform="translate(0 -161.525)" fill="#221f39"/>
      <circle id="Эллипс_7" data-name="Эллипс 7" cx="2.991" cy="2.991" r="2.991" transform="translate(7.452 3.831)" fill="#221f39"/>
    </g>
  </g>
</svg>
