<svg xmlns="http://www.w3.org/2000/svg" width="39.64" height="35.892"><g fill="#2b2a29"><path data-name="Контур 196" d="M16.983 20.017s1.747 10.169-.453 15.876H1.13A54.726 54.726 0 01.007 25.017c-.076-6.473.477-9.712 3.379-15.241S13.641-.079 16.807.001v1.016c-6.13 6.436-9.575 13.166-8.8 19z"/><path data-name="Контур 197" d="M38.983 20.017s1.747 10.169-.453 15.876h-15.4a54.726 54.726 0 01-1.123-10.876c-.076-6.473.477-9.712 3.379-15.241S35.641-.079 38.807.001v1.016c-6.13 6.436-9.575 13.166-8.8 19z"/></g></svg>