<svg xmlns="http://www.w3.org/2000/svg" width="17.268" height="22.763"><g data-name="Сгруппировать 73"><g data-name="Сгруппировать 69"><g data-name="Сгруппировать 68"><g data-name="Сгруппировать 67"><path data-name="Контур 26" d="M12.515 5.757a.751.751 0 00-.179-.031 3.565 3.565 0 00-3.492-3.1h-.42a3.564 3.564 0 00-3.491 3.1.747.747 0 00-.179.031 1.241 1.241 0 00-.548 1.62 1.481 1.481 0 00.933 1.026 4.335 4.335 0 00.948 1.934 3.736 3.736 0 002.548 1.194h.03a3.184 3.184 0 001.964-.7 3.327 3.327 0 00.553-.5 4.334 4.334 0 00.948-1.934 1.481 1.481 0 00.933-1.026 1.241 1.241 0 00-.548-1.614z" fill="#fff"/></g></g></g><g data-name="Сгруппировать 72"><g data-name="Сгруппировать 71"><g data-name="Сгруппировать 70"><path data-name="Контур 27" d="M8.632 12.017a4.214 4.214 0 01-2.909-1.356 4.605 4.605 0 01-.994-1.9 2.059 2.059 0 01-.988-1.242 1.721 1.721 0 01.778-2.195 4.017 4.017 0 013.9-3.185h.42a4.017 4.017 0 013.9 3.185 1.721 1.721 0 01.778 2.195 2.058 2.058 0 01-.988 1.242 4.6 4.6 0 01-.994 1.9 3.831 3.831 0 01-.622.56 3.645 3.645 0 01-2.23.795h-.057zm-.21-8.906a3.091 3.091 0 00-3.014 2.7.484.484 0 01-.451.4.257.257 0 00-.063.01c-.234.073-.382.522-.229 1.014a1.009 1.009 0 00.6.7.484.484 0 01.345.354 3.831 3.831 0 00.839 1.725 2.714 2.714 0 00.413.374l.024.019a2.715 2.715 0 001.749.638h.026a2.685 2.685 0 001.667-.592l.021-.016a2.847 2.847 0 00.473-.424 3.835 3.835 0 00.839-1.725.484.484 0 01.345-.354 1.008 1.008 0 00.6-.7c.153-.492.005-.941-.229-1.014a.256.256 0 00-.062-.01.485.485 0 01-.451-.4 3.091 3.091 0 00-3.014-2.7z" fill="#393939"/></g></g></g></g><g data-name="Сгруппировать 80"><g data-name="Сгруппировать 76"><g data-name="Сгруппировать 75"><g data-name="Сгруппировать 74"><rect data-name="Прямоугольник 9" width="2.197" height="1.908" rx=".954" fill="#80f1b1" transform="translate(7.484 12.85)"/></g></g></g><g data-name="Сгруппировать 79"><g data-name="Сгруппировать 78"><g data-name="Сгруппировать 77"><path data-name="Контур 28" d="M9.358 15.027H7.807a.592.592 0 01-.592-.592v-1.267a.593.593 0 01.592-.592h1.551a.593.593 0 01.592.592v1.262a.593.593 0 01-.592.597zm-1.551-1.908a.054.054 0 00-.054.054v1.262a.054.054 0 00.054.054h1.551a.054.054 0 00.054-.054v-1.267a.054.054 0 00-.054-.054z" fill="#393939"/></g></g></g></g><g data-name="Сгруппировать 87"><g data-name="Сгруппировать 83"><g data-name="Сгруппировать 82"><g data-name="Сгруппировать 81"><path data-name="Контур 29" d="M9.971 16.811l-.677-2.089h-1.42l-.576 2.088 1.337 2.589z" fill="#80f1b1"/></g></g></g><g data-name="Сгруппировать 86"><g data-name="Сгруппировать 85"><g data-name="Сгруппировать 84"><path data-name="Контур 30" d="M8.634 19.669a.27.27 0 01-.239-.146l-1.337-2.589a.269.269 0 01-.02-.195l.576-2.088a.269.269 0 01.259-.2h1.42a.269.269 0 01.256.186l.678 2.089a.269.269 0 01-.017.206l-1.336 2.589a.269.269 0 01-.24.148zm-1.049-2.888l1.049 2.033 1.046-2.026-.583-1.8h-1.02z" fill="#393939"/></g></g></g></g><g data-name="Сгруппировать 94"><g data-name="Сгруппировать 90"><g data-name="Сгруппировать 89"><g data-name="Сгруппировать 88"><path data-name="Контур 31" d="M4.739 5.386c-.9-2.978.9-4.9 3.88-4.9 1.444 0 4.528.87 3.657 4.752 0 0-.884-2.177-1.817-2.213-.431-.017-1.037 1.512-3.485.842-1.624-.446-2.235 1.519-2.235 1.519z" fill="#221f39"/></g></g></g><g data-name="Сгруппировать 93"><g data-name="Сгруппировать 92"><g data-name="Сгруппировать 91"><path data-name="Контур 32" d="M4.734 5.871a.484.484 0 01-.462-.344 4.222 4.222 0 01.457-3.865A4.658 4.658 0 018.616.001a4.577 4.577 0 013.506 1.54 4.32 4.32 0 01.623 3.8.484.484 0 01-.921.076 4.072 4.072 0 00-1.323-1.9 4.493 4.493 0 00-.157.128 3.186 3.186 0 01-2.221.873 4.881 4.881 0 01-1.281-.187 1.279 1.279 0 00-.336-.048c-.9 0-1.3 1.233-1.308 1.246a.484.484 0 01-.464.342zm3.88-4.9a3.728 3.728 0 00-3.109 1.27 2.791 2.791 0 00-.518 1.776 2.028 2.028 0 011.518-.7 2.25 2.25 0 01.592.083 3.918 3.918 0 001.025.153 2.235 2.235 0 001.6-.645 1.149 1.149 0 01.728-.368h.026a2 2 0 011.448 1.038 2.671 2.671 0 00-.556-1.432A3.645 3.645 0 008.619.969z" fill="#393939"/></g></g></g></g><g data-name="Сгруппировать 120"><g data-name="Сгруппировать 116"><g data-name="Сгруппировать 115"><g data-name="Сгруппировать 114"><path data-name="Контур 38" d="M11.978 13.144c3.555 0 4.806 2.088 4.806 5.119v1.644c0 1.31-3.649 2.372-8.15 2.372s-8.15-1.062-8.15-2.372v-1.644c0-3.03 1.274-5.119 4.829-5.119l3.32 6.256z" fill="#fff"/></g></g></g><g data-name="Сгруппировать 119"><g data-name="Сгруппировать 118"><g data-name="Сгруппировать 117"><path data-name="Контур 39" d="M8.634 22.763C4.343 22.763 0 21.782 0 19.906v-1.644c0-3.665 1.837-5.6 5.313-5.6a.484.484 0 01.428.257l2.894 5.453 2.915-5.454a.484.484 0 01.427-.256c3.461 0 5.29 1.938 5.29 5.6v1.644c.002 1.876-4.343 2.857-8.633 2.857zm-3.609-9.13C2.26 13.727.969 15.205.969 18.262v1.644c0 .3.638.8 2.038 1.213a23.781 23.781 0 0011.255 0c1.4-.408 2.038-.914 2.038-1.213v-1.644c0-3.057-1.284-4.535-4.034-4.629l-3.2 5.995a.484.484 0 01-.427.256.484.484 0 01-.427-.257z" fill="#393939"/></g></g></g></g><g data-name="Сгруппировать 124"><g data-name="Сгруппировать 123"><g data-name="Сгруппировать 122"><g data-name="Сгруппировать 121"><path data-name="Контур 40" d="M13.55 18.394h-2.245a.269.269 0 010-.538h2.245a.269.269 0 010 .538z" fill="#393939"/></g></g></g></g></svg>