<svg xmlns="http://www.w3.org/2000/svg" width="41" height="41"><g fill="#fff" stroke="#e2e4e8" stroke-miterlimit="10"><rect width="41" height="41" rx="10" stroke="none"/><rect x=".5" y=".5" width="40" height="40" rx="9.5" fill="none"/></g><g data-name="cabinet-card-icon"><g data-name="Сгруппировать 730"><g data-name="Сгруппировать 35"><rect data-name="Прямоугольник 7" width="22.893" height="15.283" rx="2" fill="#fff" transform="translate(9.273 13.044)"/></g><g data-name="Сгруппировать 42"><g data-name="Сгруппировать 41"><g data-name="Сгруппировать 40"><g data-name="Сгруппировать 39"><path data-name="Контур 20" d="M30.097 28.904H11.341a2.649 2.649 0 01-2.646-2.646V15.112a2.649 2.649 0 012.646-2.646h18.756a2.649 2.649 0 012.646 2.646v11.146a2.649 2.649 0 01-2.646 2.646zM11.341 13.621a1.493 1.493 0 00-1.491 1.491v11.146a1.493 1.493 0 001.491 1.491h18.756a1.493 1.493 0 001.491-1.491V15.112a1.493 1.493 0 00-1.491-1.491z" fill="#393939"/></g></g></g></g><g data-name="Сгруппировать 43"><path data-name="Контур 21" d="M29.482 26.877H11.929a.642.642 0 010-1.284h17.553a.642.642 0 110 1.284z" fill="#80f1b1"/></g><g data-name="Сгруппировать 55"><path data-name="Контур 24" d="M19.183 24.021h-7.255a.321.321 0 110-.642h7.255a.321.321 0 110 .642z" fill="#393939"/></g><g data-name="Сгруппировать 51"><path data-name="Контур 23" d="M21.191 21.85h-9.263a.321.321 0 110-.642h9.263a.321.321 0 110 .642z" fill="#393939"/></g><g data-name="Сгруппировать 59"><path data-name="Прямоугольник 8" fill="#80f1b1" d="M9.273 16.163h22.893v2.867H9.273z"/></g><g data-name="Сгруппировать 62"><path data-name="Контур 25" d="M32.166 19.607H9.273a.578.578 0 01-.578-.578v-2.866a.578.578 0 01.578-.578h22.893a.578.578 0 01.578.578v2.866a.578.578 0 01-.578.578zM9.85 18.452h21.738v-1.711H9.85z" fill="#393939"/></g></g><path data-name="Icon ionic-ios-star" d="M29.565 22.641h-1.284l-.39-1.165a.141.141 0 00-.266 0l-.39 1.165h-1.294a.14.14 0 00-.14.14.1.1 0 000 .024.134.134 0 00.059.1l1.056.744-.403 1.176a.14.14 0 00.048.157.135.135 0 00.079.034.171.171 0 00.087-.031l1.031-.735 1.031.735a.164.164 0 00.087.031.125.125 0 00.075-.034.138.138 0 00.048-.157l-.403-1.178 1.047-.751.025-.022a.134.134 0 00-.1-.233z" fill="#393939"/></g></svg>