<svg xmlns="http://www.w3.org/2000/svg" width="41" height="41"><g fill="#fff" stroke="#e2e4e8" stroke-miterlimit="10"><rect width="41" height="41" rx="10" stroke="none"/><rect x=".5" y=".5" width="40" height="40" rx="9.5" fill="none"/></g><g data-name="cabinet-money-icon"><g data-name="Сгруппировать 132"><g data-name="Сгруппировать 128"><g data-name="Сгруппировать 127"><g data-name="Сгруппировать 126"><path data-name="Прямоугольник 10" fill="#80f1b1" d="M11.243 12.65H31.8v12.581H11.243z"/></g></g></g><g data-name="Сгруппировать 131"><g data-name="Сгруппировать 130"><g data-name="Сгруппировать 129"><path data-name="Контур 41" d="M31.803 25.699h-20.56a.468.468 0 01-.468-.468V12.65a.468.468 0 01.468-.468h20.56a.468.468 0 01.468.468v12.581a.468.468 0 01-.468.468zm-20.089-.937h19.62V13.119h-19.62z" fill="#393939"/></g></g></g></g><g data-name="Сгруппировать 136"><g data-name="Сгруппировать 135"><g data-name="Сгруппировать 134"><g data-name="Сгруппировать 133"><path data-name="Прямоугольник 11" fill="#fff" d="M8.866 14.993h20.557v12.581H8.866z"/></g></g></g></g><g data-name="Сгруппировать 143"><g data-name="Сгруппировать 139"><g data-name="Сгруппировать 138"><g data-name="Сгруппировать 137"><path data-name="Контур 42" d="M11.324 14.993a2.458 2.458 0 01-2.458 2.458v-2.458z" fill="#80f1b1"/></g></g></g><g data-name="Сгруппировать 142"><g data-name="Сгруппировать 141"><g data-name="Сгруппировать 140"><path data-name="Контур 43" d="M8.871 17.711a.26.26 0 01-.26-.26v-2.458a.26.26 0 01.26-.26h2.458a.26.26 0 01.26.26 2.721 2.721 0 01-2.718 2.718zm.26-2.458v1.922a2.2 2.2 0 001.922-1.922z" fill="#393939"/></g></g></g></g><g data-name="Сгруппировать 150"><g data-name="Сгруппировать 146"><g data-name="Сгруппировать 145"><g data-name="Сгруппировать 144"><path data-name="Контур 44" d="M11.324 27.574a2.458 2.458 0 00-2.458-2.458v2.458z" fill="#80f1b1"/></g></g></g><g data-name="Сгруппировать 149"><g data-name="Сгруппировать 148"><g data-name="Сгруппировать 147"><path data-name="Контур 45" d="M11.324 27.832H8.871a.26.26 0 01-.26-.26v-2.458a.26.26 0 01.26-.26 2.721 2.721 0 012.718 2.718.26.26 0 01-.265.26zm-2.2-.52h1.922a2.2 2.2 0 00-1.922-1.922z" fill="#393939"/></g></g></g></g><g data-name="Сгруппировать 157"><g data-name="Сгруппировать 153"><g data-name="Сгруппировать 152"><g data-name="Сгруппировать 151"><path data-name="Контур 46" d="M29.423 17.451a2.458 2.458 0 01-2.458-2.458h2.458z" fill="#80f1b1"/></g></g></g><g data-name="Сгруппировать 156"><g data-name="Сгруппировать 155"><g data-name="Сгруппировать 154"><path data-name="Контур 47" d="M29.423 17.711a2.721 2.721 0 01-2.718-2.718.26.26 0 01.26-.26h2.458a.26.26 0 01.26.26v2.458a.26.26 0 01-.26.26zm-2.182-2.458a2.2 2.2 0 001.922 1.922v-1.922z" fill="#393939"/></g></g></g></g><g data-name="Сгруппировать 164"><g data-name="Сгруппировать 160"><g data-name="Сгруппировать 159"><g data-name="Сгруппировать 158"><path data-name="Контур 48" d="M29.423 25.116a2.458 2.458 0 00-2.458 2.458h2.458z" fill="#80f1b1"/></g></g></g><g data-name="Сгруппировать 163"><g data-name="Сгруппировать 162"><g data-name="Сгруппировать 161"><path data-name="Контур 49" d="M29.423 27.832h-2.458a.26.26 0 01-.26-.26 2.721 2.721 0 012.718-2.718.26.26 0 01.26.26v2.458a.26.26 0 01-.26.26zm-2.182-.52h1.922v-1.92a2.2 2.2 0 00-1.922 1.922z" fill="#393939"/></g></g></g></g><g data-name="Сгруппировать 168"><g data-name="Сгруппировать 167"><g data-name="Сгруппировать 166"><g data-name="Сгруппировать 165"><path data-name="Контур 50" d="M29.424 28.042H8.863a.468.468 0 01-.469-.468V14.993a.468.468 0 01.469-.468H29.42a.468.468 0 01.469.468v12.581a.468.468 0 01-.465.468zm-20.089-.937h19.62V15.462H9.335z" fill="#393939"/></g></g></g></g><g data-name="Сгруппировать 172"><g data-name="Сгруппировать 171"><g data-name="Сгруппировать 170"><g data-name="Сгруппировать 169"><path data-name="Контур 51" d="M26.175 17.171H12.116a.52.52 0 110-1.041h14.059a.52.52 0 010 1.041z" fill="#80f1b1"/></g></g></g></g><g data-name="Сгруппировать 176"><g data-name="Сгруппировать 175"><g data-name="Сгруппировать 174"><g data-name="Сгруппировать 173"><path data-name="Контур 52" d="M26.175 26.469H12.116a.52.52 0 110-1.041h14.059a.52.52 0 010 1.041z" fill="#80f1b1"/></g></g></g></g><g data-name="Сгруппировать 180"><g data-name="Сгруппировать 179"><g data-name="Сгруппировать 178"><g data-name="Сгруппировать 177"><path data-name="Контур 53" d="M23.58 21.284a4.435 4.435 0 11-4.435-4.435 4.435 4.435 0 014.435 4.435z" fill="#80f1b1"/></g></g></g></g><g data-name="Сгруппировать 184"><g data-name="Сгруппировать 183"><g data-name="Сгруппировать 182"><g data-name="Сгруппировать 181"><path data-name="Контур 54" d="M19.145 25.979a4.7 4.7 0 114.695-4.7 4.7 4.7 0 01-4.695 4.7zm0-8.87a4.175 4.175 0 104.175 4.175 4.179 4.179 0 00-4.175-4.175z" fill="#393939"/></g></g></g></g><g data-name="Сгруппировать 188"><g data-name="Сгруппировать 187"><g data-name="Сгруппировать 186"><g data-name="Сгруппировать 185"><path data-name="Контур 55" d="M13.304 21.543H10.54a.26.26 0 010-.52h2.764a.26.26 0 010 .52z" fill="#393939"/></g></g></g></g><g data-name="Сгруппировать 192"><g data-name="Сгруппировать 191"><g data-name="Сгруппировать 190"><g data-name="Сгруппировать 189"><path data-name="Контур 56" d="M27.678 21.543h-2.764a.26.26 0 110-.52h2.764a.26.26 0 110 .52z" fill="#393939"/></g></g></g></g><g data-name="Сгруппировать 205"><g data-name="Сгруппировать 196"><g data-name="Сгруппировать 195"><g data-name="Сгруппировать 194"><g data-name="Сгруппировать 193"><path data-name="Контур 57" d="M19.109 23.546a1.256 1.256 0 01-1.254-1.254.26.26 0 11.52 0 .734.734 0 001.468 0c0-.475-.3-.6-.832-.774-.488-.162-1.156-.384-1.156-1.214a1.254 1.254 0 112.509 0 .26.26 0 01-.521 0 .734.734 0 10-1.468 0c0 .435.274.546.8.72.5.166 1.188.394 1.188 1.268a1.256 1.256 0 01-1.254 1.254z" fill="#393939"/></g></g></g></g><g data-name="Сгруппировать 200"><g data-name="Сгруппировать 199"><g data-name="Сгруппировать 198"><g data-name="Сгруппировать 197"><path data-name="Контур 58" d="M19.111 19.569a.26.26 0 01-.26-.26v-.693a.26.26 0 11.52 0v.693a.26.26 0 01-.26.26z" fill="#393939"/></g></g></g></g><g data-name="Сгруппировать 204"><g data-name="Сгруппировать 203"><g data-name="Сгруппировать 202"><g data-name="Сгруппировать 201"><path data-name="Контур 59" d="M19.111 24.239a.26.26 0 01-.26-.26v-.69a.26.26 0 11.52 0v.693a.26.26 0 01-.26.257z" fill="#393939"/></g></g></g></g></g></g></svg>