<svg xmlns="http://www.w3.org/2000/svg" width="23.849" height="18.875"><path data-name="Контур 8451" d="M15.209 3.48a.5.5 0 11-.5-.5.5.5 0 01.5.5zm0 0"/><path data-name="Контур 8452" d="M12.422 3.48a.5.5 0 11-.5-.5.5.5 0 01.5.5zm0 0"/><path data-name="Контур 8453" d="M9.634 3.48a.5.5 0 11-.5-.5.5.5 0 01.5.5zm0 0"/><path data-name="Контур 8454" d="M13.912 12.468a1.987 1.987 0 10-1.987 1.987 1.989 1.989 0 001.987-1.987zm-1.987.993a.993.993 0 11.993-.993.995.995 0 01-.993.993zm0 0"/><path data-name="Контур 8455" d="M8.448 17.932v.447a.5.5 0 00.5.5h5.961a.5.5 0 00.5-.5v-.447a3.477 3.477 0 00-6.954 0zm3.477-2.484a2.487 2.487 0 012.483 2.434H9.442a2.487 2.487 0 012.483-2.434zm0 0"/><path data-name="Контур 8456" d="M5.464 12.468a1.987 1.987 0 10-1.987 1.987 1.989 1.989 0 001.987-1.987zm-1.987.993a.993.993 0 11.993-.993.995.995 0 01-.993.993zm0 0"/><path data-name="Контур 8457" d="M.5 18.876h5.961a.5.5 0 00.5-.5v-.447a3.477 3.477 0 00-6.954 0v.447a.5.5 0 00.5.5zm2.98-3.427a2.487 2.487 0 012.483 2.434H.997a2.487 2.487 0 012.483-2.434zm0 0"/><path data-name="Контур 8458" d="M22.359 12.468a1.987 1.987 0 10-1.987 1.987 1.989 1.989 0 001.987-1.987zm-1.987.993a.993.993 0 11.993-.993.995.995 0 01-.993.993zm0 0"/><path data-name="Контур 8459" d="M20.372 14.455a3.481 3.481 0 00-3.477 3.477v.447a.5.5 0 00.5.5h5.961a.5.5 0 00.5-.5v-.447a3.481 3.481 0 00-3.477-3.477zm-2.483 3.427a2.484 2.484 0 014.966 0zm0 0"/><path data-name="Контур 8460" d="M21.986 0h-7.965a.5.5 0 000 .993h7.965a.965.965 0 01.932.993v2.98a.965.965 0 01-.932.993h-1.4a.482.482 0 00-.466.5v.686L18 6.013a.441.441 0 00-.208-.053H13.32a.452.452 0 00-.329.145l-1.068 1.139-1.068-1.139a.452.452 0 00-.329-.145H6.334a.441.441 0 00-.208.053L4.005 7.144v-.686a.482.482 0 00-.466-.5H1.862a.965.965 0 01-.932-.993v-2.98a.965.965 0 01.932-.993h7.965a.5.5 0 000-.993H1.862A1.93 1.93 0 000 1.987v2.98a1.93 1.93 0 001.863 1.987h1.211v.993a.5.5 0 00.221.422.44.44 0 00.453.022l2.7-1.438h3.889L11.6 8.3a.446.446 0 00.659 0l1.261-1.345h4.169l2.7 1.438a.441.441 0 00.453-.022.5.5 0 00.221-.422v-.993h.932a1.93 1.93 0 001.863-1.987v-2.98A1.93 1.93 0 0021.995.002zm0 0"/><path data-name="Контур 8461" d="M12.422.5a.5.5 0 11-.5-.5.5.5 0 01.5.5zm0 0"/></svg>